<?xml version="1.0" encoding="UTF-8" standalone="no"?>
<!-- Created with Inkscape (http://www.inkscape.org/) -->
<svg
   xmlns:dc="http://purl.org/dc/elements/1.1/"
   xmlns:cc="http://web.resource.org/cc/"
   xmlns:rdf="http://www.w3.org/1999/02/22-rdf-syntax-ns#"
   xmlns:svg="http://www.w3.org/2000/svg"
   xmlns="http://www.w3.org/2000/svg"
   xmlns:sodipodi="http://inkscape.sourceforge.net/DTD/sodipodi-0.dtd"
   xmlns:inkscape="http://www.inkscape.org/namespaces/inkscape"
   width="744.09448819"
   height="1052.3622047"
   id="svg6322"
   sodipodi:version="0.32"
   inkscape:version="0.43"
   sodipodi:docbase="/home/marcelix/work/hrlatex/visual_identity"
   sodipodi:docname="HRLaTeX_logo_simple.svg">
  <defs
     id="defs6324" />
  <sodipodi:namedview
     id="base"
     pagecolor="#ffffff"
     bordercolor="#666666"
     borderopacity="1.0"
     inkscape:pageopacity="0.0"
     inkscape:pageshadow="2"
     inkscape:zoom="0.35"
     inkscape:cx="375"
     inkscape:cy="520"
     inkscape:document-units="px"
     inkscape:current-layer="layer1"
     inkscape:window-width="750"
     inkscape:window-height="540"
     inkscape:window-x="0"
     inkscape:window-y="0" />
  <metadata
     id="metadata6327">
    <rdf:RDF>
      <cc:Work
         rdf:about="">
        <dc:format>image/svg+xml</dc:format>
        <dc:type
           rdf:resource="http://purl.org/dc/dcmitype/StillImage" />
      </cc:Work>
    </rdf:RDF>
  </metadata>
  <g
     inkscape:label="Layer 1"
     inkscape:groupmode="layer"
     id="layer1">
    <path
       sodipodi:type="inkscape:offset"
       inkscape:radius="0"
       inkscape:original="M 194.03125 271.90625 L 194.03125 381.375 L 514.53125 381.375 L 514.53125 271.90625 L 194.03125 271.90625 z M 255.3125 329.09375 L 266.46875 329.09375 L 266.46875 341.6875 L 278.625 341.6875 L 278.625 329.09375 L 289.8125 329.09375 L 289.8125 365.125 L 278.625 365.125 L 278.625 350.5625 L 266.46875 350.5625 L 266.46875 365.125 L 255.3125 365.125 L 255.3125 329.09375 z M 297.40625 329.09375 L 315.96875 329.09375 C 319.41151 329.09378 322.05522 329.37861 323.875 329.96875 C 325.69473 330.55898 327.16642 331.6434 328.28125 333.25 C 329.39603 334.84024 329.93746 336.79859 329.9375 339.09375 C 329.93747 341.09383 329.5087 342.82219 328.65625 344.28125 C 327.80373 345.72394 326.64809 346.91084 325.15625 347.8125 C 324.20539 348.38629 322.90578 348.84171 321.25 349.21875 C 322.5779 349.66138 323.54964 350.11987 324.15625 350.5625 C 324.5661 350.8576 325.13569 351.47025 325.90625 352.4375 C 326.69314 353.40475 327.23766 354.1629 327.5 354.6875 L 332.875 365.125 L 320.28125 365.125 L 314.34375 354.125 C 313.58961 352.69871 312.90268 351.77001 312.3125 351.34375 C 311.50918 350.78636 310.61017 350.50002 309.59375 350.5 L 308.59375 350.5 L 308.59375 365.125 L 297.40625 365.125 L 297.40625 329.09375 z M 336.40625 329.09375 L 347.5625 329.09375 L 347.5625 356.25 L 364.9375 356.25 L 364.9375 365.125 L 336.40625 365.125 L 336.40625 329.09375 z M 401.15625 329.09375 L 435.03125 329.09375 L 435.03125 338 L 423.65625 338 L 423.65625 365.125 L 412.53125 365.125 L 412.53125 338 L 401.15625 338 L 401.15625 329.09375 z M 468.1875 329.09375 L 480.46875 329.09375 L 486.875 340.1875 L 493.0625 329.09375 L 505.21875 329.09375 L 494 346.53125 L 506.28125 365.125 L 493.75 365.125 L 486.65625 353.5625 L 479.5 365.125 L 467.0625 365.125 L 479.5 346.34375 L 468.1875 329.09375 z M 308.59375 336.375 L 308.59375 343.6875 L 313.3125 343.6875 C 313.82071 343.68749 314.7909 343.51541 316.25 343.1875 C 316.98773 343.03997 317.57219 342.6691 318.03125 342.0625 C 318.50666 341.45591 318.74997 340.7557 318.75 339.96875 C 318.74998 338.80479 318.39396 337.90425 317.65625 337.28125 C 316.9185 336.65829 315.53285 336.37503 313.5 336.375 L 308.59375 336.375 z M 381.25 338.4375 C 381.64629 338.42415 382.02866 338.43751 382.4375 338.4375 C 385.43763 338.43752 387.86772 338.59324 389.6875 338.9375 C 391.50724 339.26539 393.00556 339.96566 394.21875 341.03125 C 395.07123 341.76902 395.75815 342.8268 396.25 344.1875 C 396.7418 345.53183 396.96872 346.80171 396.96875 348.03125 L 396.96875 359.5625 C 396.96874 360.79206 397.07117 361.7638 397.21875 362.46875 C 397.38267 363.15729 397.72535 364.04299 398.25 365.125 L 388.84375 365.125 C 388.46669 364.45283 388.2085 363.93804 388.09375 363.59375 C 387.97899 363.23308 387.86474 362.69164 387.75 361.9375 C 386.43845 363.19983 385.13888 364.11525 383.84375 364.65625 C 382.07319 365.37758 380.03184 365.71875 377.6875 365.71875 C 374.57261 365.71874 372.18551 365.00519 370.5625 363.5625 C 368.95588 362.11981 368.15625 360.3336 368.15625 358.21875 C 368.15626 356.23505 368.74227 354.62251 369.90625 353.34375 C 371.07024 352.06501 373.21246 351.09174 376.34375 350.46875 C 380.098 349.71462 382.54144 349.20137 383.65625 348.90625 C 384.77105 348.59479 385.94153 348.17935 387.1875 347.6875 C 387.18751 346.57322 386.97988 345.75841 386.5625 345.25 C 386.52591 345.20706 386.4772 345.16342 386.4375 345.125 C 386.42163 345.10962 386.39164 345.07739 386.375 345.0625 C 385.85616 344.61572 384.96878 344.37502 383.75 344.375 C 382.11057 344.37502 380.88218 344.63167 380.0625 345.15625 C 379.42312 345.56612 378.9247 346.33757 378.53125 347.46875 L 368.9375 346.46875 C 369.29818 344.79656 369.82784 343.48213 370.5 342.53125 C 371.18856 341.564 372.15874 340.73623 373.4375 340.03125 C 374.35558 339.52306 375.64336 339.12247 377.25 338.84375 C 378.50518 338.62602 379.83471 338.48514 381.25 338.4375 z M 448.8125 338.4375 C 449.16031 338.42208 449.5151 338.4375 449.875 338.4375 C 453.61286 338.43752 456.55469 338.99383 458.71875 340.125 C 460.88276 341.25621 462.55627 342.88364 463.6875 345.03125 C 464.81867 347.17888 465.37495 349.99474 465.375 353.4375 L 465.375 354.5625 L 445.3125 354.5625 C 445.49283 356.16913 445.90518 357.36934 446.59375 358.15625 C 447.56099 359.28743 448.84879 359.84377 450.40625 359.84375 C 451.38988 359.84377 452.30219 359.58557 453.1875 359.09375 C 453.7285 358.78224 454.3145 358.25569 454.9375 357.46875 L 464.8125 358.375 C 463.30422 360.99804 461.47496 362.88367 459.34375 364.03125 C 457.21251 365.16245 454.17127 365.71875 450.1875 365.71875 C 446.72831 365.71874 443.98368 365.24851 442 364.28125 C 440.01631 363.2976 438.37401 361.73985 437.0625 359.625 C 435.76736 357.49376 435.125 354.99398 435.125 352.125 C 435.12502 348.04286 436.42457 344.74348 439.03125 342.21875 C 441.44937 339.89131 444.7085 338.61936 448.8125 338.4375 z M 450.0625 344.34375 C 448.57537 344.40017 447.40628 345.04684 446.5 346.25 C 445.8934 347.03692 445.50767 348.19257 445.34375 349.75 L 455.1875 349.75 C 454.99075 347.81549 454.47747 346.42987 453.625 345.59375 C 452.78888 344.75765 451.68959 344.34378 450.3125 344.34375 C 450.23797 344.34374 450.13564 344.34097 450.0625 344.34375 z M 387.1875 352.75 C 385.81041 353.24184 384.3981 353.65419 382.90625 354.03125 C 380.87336 354.57225 379.57224 355.13166 379.03125 355.65625 C 378.47385 356.19726 378.1875 356.81144 378.1875 357.5 C 378.18752 358.28691 378.45899 358.92929 379 359.4375 C 379.55741 359.9293 380.37186 360.15626 381.4375 360.15625 C 382.5523 360.15624 383.58037 359.88477 384.53125 359.34375 C 385.49848 358.80275 386.20027 358.14553 386.59375 357.375 C 387.00358 356.58809 387.18749 355.58972 387.1875 354.34375 L 387.1875 352.75 z "
       style="opacity:1;color:#000000;fill:#9da0a2;fill-opacity:1;fill-rule:nonzero;stroke:#373737;stroke-width:0.5;stroke-linecap:round;stroke-linejoin:miter;marker:none;marker-start:none;marker-mid:none;marker-end:none;stroke-miterlimit:3;stroke-dasharray:none;stroke-dashoffset:0;stroke-opacity:1;visibility:visible;display:inline;overflow:visible"
       id="path4073"
       d="M 194.03125,271.90625 L 194.03125,381.375 L 514.53125,381.375 L 514.53125,271.90625 L 194.03125,271.90625 z M 255.3125,329.09375 L 266.46875,329.09375 L 266.46875,341.6875 L 278.625,341.6875 L 278.625,329.09375 L 289.8125,329.09375 L 289.8125,365.125 L 278.625,365.125 L 278.625,350.5625 L 266.46875,350.5625 L 266.46875,365.125 L 255.3125,365.125 L 255.3125,329.09375 z M 297.40625,329.09375 L 315.96875,329.09375 C 319.41151,329.09378 322.05522,329.37861 323.875,329.96875 C 325.69473,330.55898 327.16642,331.6434 328.28125,333.25 C 329.39603,334.84024 329.93746,336.79859 329.9375,339.09375 C 329.93747,341.09383 329.5087,342.82219 328.65625,344.28125 C 327.80373,345.72394 326.64809,346.91084 325.15625,347.8125 C 324.20539,348.38629 322.90578,348.84171 321.25,349.21875 C 322.5779,349.66138 323.54964,350.11987 324.15625,350.5625 C 324.5661,350.8576 325.13569,351.47025 325.90625,352.4375 C 326.69314,353.40475 327.23766,354.1629 327.5,354.6875 L 332.875,365.125 L 320.28125,365.125 L 314.34375,354.125 C 313.58961,352.69871 312.90268,351.77001 312.3125,351.34375 C 311.50918,350.78636 310.61017,350.50002 309.59375,350.5 L 308.59375,350.5 L 308.59375,365.125 L 297.40625,365.125 L 297.40625,329.09375 z M 336.40625,329.09375 L 347.5625,329.09375 L 347.5625,356.25 L 364.9375,356.25 L 364.9375,365.125 L 336.40625,365.125 L 336.40625,329.09375 z M 401.15625,329.09375 L 435.03125,329.09375 L 435.03125,338 L 423.65625,338 L 423.65625,365.125 L 412.53125,365.125 L 412.53125,338 L 401.15625,338 L 401.15625,329.09375 z M 468.1875,329.09375 L 480.46875,329.09375 L 486.875,340.1875 L 493.0625,329.09375 L 505.21875,329.09375 L 494,346.53125 L 506.28125,365.125 L 493.75,365.125 L 486.65625,353.5625 L 479.5,365.125 L 467.0625,365.125 L 479.5,346.34375 L 468.1875,329.09375 z M 308.59375,336.375 L 308.59375,343.6875 L 313.3125,343.6875 C 313.82071,343.68749 314.7909,343.51541 316.25,343.1875 C 316.98773,343.03997 317.57219,342.6691 318.03125,342.0625 C 318.50666,341.45591 318.74997,340.7557 318.75,339.96875 C 318.74998,338.80479 318.39396,337.90425 317.65625,337.28125 C 316.9185,336.65829 315.53285,336.37503 313.5,336.375 L 308.59375,336.375 z M 381.25,338.4375 C 381.64629,338.42415 382.02866,338.43751 382.4375,338.4375 C 385.43763,338.43752 387.86772,338.59324 389.6875,338.9375 C 391.50724,339.26539 393.00556,339.96566 394.21875,341.03125 C 395.07123,341.76902 395.75815,342.8268 396.25,344.1875 C 396.7418,345.53183 396.96872,346.80171 396.96875,348.03125 L 396.96875,359.5625 C 396.96874,360.79206 397.07117,361.7638 397.21875,362.46875 C 397.38267,363.15729 397.72535,364.04299 398.25,365.125 L 388.84375,365.125 C 388.46669,364.45283 388.2085,363.93804 388.09375,363.59375 C 387.97899,363.23308 387.86474,362.69164 387.75,361.9375 C 386.43845,363.19983 385.13888,364.11525 383.84375,364.65625 C 382.07319,365.37758 380.03184,365.71875 377.6875,365.71875 C 374.57261,365.71874 372.18551,365.00519 370.5625,363.5625 C 368.95588,362.11981 368.15625,360.3336 368.15625,358.21875 C 368.15626,356.23505 368.74227,354.62251 369.90625,353.34375 C 371.07024,352.06501 373.21246,351.09174 376.34375,350.46875 C 380.098,349.71462 382.54144,349.20137 383.65625,348.90625 C 384.77105,348.59479 385.94153,348.17935 387.1875,347.6875 C 387.18751,346.57322 386.97988,345.75841 386.5625,345.25 C 386.52591,345.20706 386.4772,345.16342 386.4375,345.125 C 386.42163,345.10962 386.39164,345.07739 386.375,345.0625 C 385.85616,344.61572 384.96878,344.37502 383.75,344.375 C 382.11057,344.37502 380.88218,344.63167 380.0625,345.15625 C 379.42312,345.56612 378.9247,346.33757 378.53125,347.46875 L 368.9375,346.46875 C 369.29818,344.79656 369.82784,343.48213 370.5,342.53125 C 371.18856,341.564 372.15874,340.73623 373.4375,340.03125 C 374.35558,339.52306 375.64336,339.12247 377.25,338.84375 C 378.50518,338.62602 379.83471,338.48514 381.25,338.4375 z M 448.8125,338.4375 C 449.16031,338.42208 449.5151,338.4375 449.875,338.4375 C 453.61286,338.43752 456.55469,338.99383 458.71875,340.125 C 460.88276,341.25621 462.55627,342.88364 463.6875,345.03125 C 464.81867,347.17888 465.37495,349.99474 465.375,353.4375 L 465.375,354.5625 L 445.3125,354.5625 C 445.49283,356.16913 445.90518,357.36934 446.59375,358.15625 C 447.56099,359.28743 448.84879,359.84377 450.40625,359.84375 C 451.38988,359.84377 452.30219,359.58557 453.1875,359.09375 C 453.7285,358.78224 454.3145,358.25569 454.9375,357.46875 L 464.8125,358.375 C 463.30422,360.99804 461.47496,362.88367 459.34375,364.03125 C 457.21251,365.16245 454.17127,365.71875 450.1875,365.71875 C 446.72831,365.71874 443.98368,365.24851 442,364.28125 C 440.01631,363.2976 438.37401,361.73985 437.0625,359.625 C 435.76736,357.49376 435.125,354.99398 435.125,352.125 C 435.12502,348.04286 436.42457,344.74348 439.03125,342.21875 C 441.44937,339.89131 444.7085,338.61936 448.8125,338.4375 z M 450.0625,344.34375 C 448.57537,344.40017 447.40628,345.04684 446.5,346.25 C 445.8934,347.03692 445.50767,348.19257 445.34375,349.75 L 455.1875,349.75 C 454.99075,347.81549 454.47747,346.42987 453.625,345.59375 C 452.78888,344.75765 451.68959,344.34378 450.3125,344.34375 C 450.23797,344.34374 450.13564,344.34097 450.0625,344.34375 z M 387.1875,352.75 C 385.81041,353.24184 384.3981,353.65419 382.90625,354.03125 C 380.87336,354.57225 379.57224,355.13166 379.03125,355.65625 C 378.47385,356.19726 378.1875,356.81144 378.1875,357.5 C 378.18752,358.28691 378.45899,358.92929 379,359.4375 C 379.55741,359.9293 380.37186,360.15626 381.4375,360.15625 C 382.5523,360.15624 383.58037,359.88477 384.53125,359.34375 C 385.49848,358.80275 386.20027,358.14553 386.59375,357.375 C 387.00358,356.58809 387.18749,355.58972 387.1875,354.34375 L 387.1875,352.75 z "
       transform="translate(-30.70982,2.864457)" />
  </g>
</svg>
