<?xml version="1.0" encoding="UTF-8" standalone="no"?>
<!-- Created with Inkscape (http://www.inkscape.org/) -->
<svg
   xmlns:dc="http://purl.org/dc/elements/1.1/"
   xmlns:cc="http://web.resource.org/cc/"
   xmlns:rdf="http://www.w3.org/1999/02/22-rdf-syntax-ns#"
   xmlns:svg="http://www.w3.org/2000/svg"
   xmlns="http://www.w3.org/2000/svg"
   xmlns:sodipodi="http://inkscape.sourceforge.net/DTD/sodipodi-0.dtd"
   xmlns:inkscape="http://www.inkscape.org/namespaces/inkscape"
   width="744.09448819"
   height="1052.3622047"
   id="svg2"
   sodipodi:version="0.32"
   inkscape:version="0.43"
   sodipodi:docbase="/home/marcelix/work/hrlatex/visual_identity"
   sodipodi:docname="HRLaTeX_logo_outline.svg">
  <defs
     id="defs4" />
  <sodipodi:namedview
     id="base"
     pagecolor="#ffffff"
     bordercolor="#666666"
     borderopacity="1.0"
     inkscape:pageopacity="0.0"
     inkscape:pageshadow="2"
     inkscape:zoom="2.8970588"
     inkscape:cx="240"
     inkscape:cy="877"
     inkscape:document-units="px"
     inkscape:current-layer="layer1"
     inkscape:window-width="1276"
     inkscape:window-height="951"
     inkscape:window-x="0"
     inkscape:window-y="0" />
  <metadata
     id="metadata7">
    <rdf:RDF>
      <cc:Work
         rdf:about="">
        <dc:format>image/svg+xml</dc:format>
        <dc:type
           rdf:resource="http://purl.org/dc/dcmitype/StillImage" />
      </cc:Work>
    </rdf:RDF>
  </metadata>
  <g
     inkscape:label="Layer 1"
     inkscape:groupmode="layer"
     id="layer1">
    <path
       style="font-size:36.27958298px;font-style:normal;font-weight:normal;line-height:125%;fill:#000000;fill-opacity:1;stroke:#000000;stroke-width:0.5;stroke-linecap:butt;stroke-linejoin:miter;stroke-miterlimit:4;stroke-opacity:1;font-family:Bitstream Vera Sans"
       d="M 166.5007,203.65306 L 174.52543,203.65306 L 174.52543,212.74067 L 183.29418,212.74067 L 183.29418,203.65306 L 191.35434,203.65306 L 191.35434,229.62273 L 183.29418,229.62273 L 183.29418,219.11794 L 174.52543,219.11794 L 174.52543,229.62273 L 166.5007,229.62273 L 166.5007,203.65306"
       id="text1307" />
    <path
       style="font-size:36.27958298px;font-style:normal;font-weight:normal;line-height:125%;fill:#000000;fill-opacity:1;stroke:#000000;stroke-width:0.5;stroke-linecap:butt;stroke-linejoin:miter;stroke-miterlimit:4;stroke-opacity:1;font-family:Bitstream Vera Sans"
       d="M 196.84375 203.65625 L 196.84375 229.625 L 204.875 229.625 L 204.875 219.09375 L 205.59375 219.09375 C 206.32594 219.09376 206.98381 219.28598 207.5625 219.6875 C 207.98763 219.99457 208.48798 220.66006 209.03125 221.6875 L 213.3125 229.625 L 222.375 229.625 L 218.5 222.09375 C 218.31102 221.71585 217.94184 221.16555 217.375 220.46875 C 216.81992 219.77199 216.38897 219.33759 216.09375 219.125 C 215.65677 218.80615 214.95657 218.47513 214 218.15625 C 215.19276 217.88464 216.1275 217.53835 216.8125 217.125 C 217.88716 216.47547 218.72961 215.63302 219.34375 214.59375 C 219.95783 213.5427 220.24998 212.31581 220.25 210.875 C 220.24998 209.22166 219.86554 207.80182 219.0625 206.65625 C 218.25941 205.49892 217.18587 204.70643 215.875 204.28125 C 214.56409 203.85613 212.66754 203.65628 210.1875 203.65625 L 196.84375 203.65625 z M 204.875 208.90625 L 208.40625 208.90625 C 209.87064 208.90627 210.87481 209.11375 211.40625 209.5625 C 211.93767 210.01129 212.21873 210.66152 212.21875 211.5 C 212.21873 212.06689 212.02996 212.56306 211.6875 213 C 211.35681 213.43698 210.93767 213.70623 210.40625 213.8125 C 209.35516 214.04871 208.64734 214.18751 208.28125 214.1875 L 204.875 214.1875 L 204.875 208.90625 z "
       id="path1375" />
    <path
       style="font-size:36.27958298px;font-style:normal;font-weight:normal;line-height:125%;fill:none;fill-opacity:1;stroke:#000000;stroke-width:0.5;stroke-linecap:butt;stroke-linejoin:miter;stroke-miterlimit:4;stroke-opacity:1;font-family:Bitstream Vera Sans"
       d="M 224.92358,203.65306 L 232.94832,203.65306 L 232.94832,223.22774 L 245.47257,223.22774 L 245.47257,229.62273 L 224.92358,229.62273 L 224.92358,203.65306"
       id="path1371" />
    <path
       style="font-size:36.27958298px;font-style:normal;font-weight:normal;line-height:125%;fill:none;fill-opacity:1;stroke:#000000;stroke-width:0.5;stroke-linecap:butt;stroke-linejoin:miter;stroke-miterlimit:4;stroke-opacity:1;font-family:Bitstream Vera Sans"
       d="M 255.25105,216.90361 L 248.36005,216.17731 C 248.61987,214.97273 248.99187,214.02795 249.47607,213.34297 C 249.97208,212.64621 250.68067,212.04392 251.60183,211.53608 C 252.26317,211.16999 253.17252,210.88656 254.32989,210.68578 C 255.48723,210.48503 256.73907,210.38465 258.08539,210.38463 C 260.24656,210.38465 261.9826,210.50865 263.29349,210.75663 C 264.60436,210.99285 265.69676,211.49476 266.5707,212.26238 C 267.18479,212.79384 267.66899,213.54966 268.0233,214.52985 C 268.37757,215.49827 268.55472,216.42533 268.55474,217.31105 L 268.55474,225.61922 C 268.55472,226.50495 268.60786,227.20173 268.71417,227.70955 C 268.83225,228.20556 269.08025,228.84328 269.45819,229.62273 L 262.6912,229.62273 C 262.41956,229.13853 262.24241,228.77242 262.15976,228.52442 C 262.07707,228.26461 261.9944,227.86307 261.91175,227.31982 C 260.96696,228.22918 260.02808,228.87871 259.09512,229.26843 C 257.81966,229.78806 256.33754,230.04788 254.64875,230.04788 C 252.40489,230.04788 250.69838,229.52825 249.52922,228.48899 C 248.37186,227.44973 247.79318,226.16838 247.79318,224.64491 C 247.79318,223.21594 248.21243,222.04087 249.05092,221.1197 C 249.88941,220.19855 251.43649,219.51358 253.69216,219.0648 C 256.39658,218.52156 258.15033,218.14365 258.95341,217.93106 C 259.75646,217.70669 260.60676,217.41735 261.50432,217.06305 C 261.5043,216.17733 261.32125,215.55732 260.95516,215.20301 C 260.58904,214.84873 259.94541,214.67159 259.02427,214.67157 C 257.84328,214.67159 256.95755,214.86054 256.36707,215.23844 C 255.90648,215.5337 255.53447,216.08875 255.25105,216.90361"
       id="path1369" />
    <path
       style="font-size:36.27958298px;font-style:normal;font-weight:normal;line-height:125%;fill:none;fill-opacity:1;stroke:#000000;stroke-width:0.5;stroke-linecap:butt;stroke-linejoin:miter;stroke-miterlimit:4;stroke-opacity:1;font-family:Bitstream Vera Sans"
       d="M 261.50432,220.69455 C 260.51228,221.04885 259.47893,221.36181 258.40425,221.63342 C 256.93983,222.02315 256.01277,222.40697 255.62305,222.78488 C 255.22151,223.1746 255.02075,223.61747 255.02076,224.11347 C 255.02075,224.68035 255.21561,225.14683 255.60534,225.51293 C 256.00686,225.86723 256.59145,226.04437 257.35909,226.04437 C 258.16214,226.04437 258.90616,225.84951 259.59113,225.45979 C 260.2879,225.07007 260.778,224.59768 261.06145,224.04261 C 261.35668,223.47575 261.5043,222.74355 261.50432,221.846 L 261.50432,220.69455"
       id="path1367" />
    <path
       style="font-size:36.27958298px;font-style:normal;font-weight:normal;line-height:125%;fill:none;fill-opacity:1;stroke:#000000;stroke-width:0.5;stroke-linecap:butt;stroke-linejoin:miter;stroke-miterlimit:4;stroke-opacity:1;font-family:Bitstream Vera Sans"
       d="M 271.56623,203.65306 L 295.95929,203.65306 L 295.95929,210.06576 L 287.77513,210.06576 L 287.77513,229.62273 L 279.75039,229.62273 L 279.75039,210.06576 L 271.56623,210.06576 L 271.56623,203.65306"
       id="path1365" />
    <path
       style="font-size:36.27958298px;font-style:normal;font-weight:normal;line-height:125%;fill:none;fill-opacity:1;stroke:#000000;stroke-width:0.5;stroke-linecap:butt;stroke-linejoin:miter;stroke-miterlimit:4;stroke-opacity:1;font-family:Bitstream Vera Sans"
       d="M 317.81916,222.00543 L 303.36401,222.00543 C 303.49391,223.16279 303.80687,224.02491 304.30289,224.59177 C 304.99966,225.40665 305.90901,225.81408 307.03095,225.81408 C 307.73952,225.81408 308.41267,225.63694 309.05041,225.28264 C 309.44012,225.05826 309.85937,224.66263 310.30815,224.09576 L 317.41172,224.7512 C 316.3252,226.64077 315.01432,227.99889 313.47907,228.82557 C 311.94379,229.64044 309.74127,230.04788 306.87151,230.04788 C 304.37964,230.04788 302.41923,229.69949 300.99025,229.00271 C 299.56127,228.29413 298.37439,227.17811 297.42961,225.65465 C 296.49664,224.11938 296.03015,222.3184 296.03015,220.25168 C 296.03015,217.31106 296.96903,214.9314 298.84678,213.11268 C 300.73634,211.294 303.34039,210.38465 306.65894,210.38463 C 309.35155,210.38465 311.4773,210.79208 313.03621,211.60694 C 314.59508,212.42183 315.78196,213.6028 316.59685,215.14987 C 317.4117,216.69696 317.81914,218.71052 317.81916,221.19056 L 317.81916,222.00543"
       id="path1363" />
    <path
       style="font-size:36.27958298px;font-style:normal;font-weight:normal;line-height:125%;fill:none;fill-opacity:1;stroke:#000000;stroke-width:0.5;stroke-linecap:butt;stroke-linejoin:miter;stroke-miterlimit:4;stroke-opacity:1;font-family:Bitstream Vera Sans"
       d="M 310.4853,218.55108 C 310.34357,217.15754 309.96566,216.15961 309.35156,215.5573 C 308.74925,214.95502 307.95209,214.65387 306.96009,214.65386 C 305.81453,214.65387 304.89927,215.10855 304.21432,216.01788 C 303.77735,216.58476 303.49982,217.42916 303.38173,218.55108 L 310.4853,218.55108"
       id="path1361" />
    <path
       style="font-size:36.27958298px;font-style:normal;font-weight:normal;line-height:125%;fill:none;fill-opacity:1;stroke:#000000;stroke-width:0.5;stroke-linecap:butt;stroke-linejoin:miter;stroke-miterlimit:4;stroke-opacity:1;font-family:Bitstream Vera Sans"
       d="M 319.85634,203.65306 L 328.69595,203.65306 L 333.30176,211.64237 L 337.76585,203.65306 L 346.51688,203.65306 L 338.439,216.23046 L 347.27861,229.62273 L 338.26186,229.62273 L 333.14232,221.27913 L 328.00508,229.62273 L 319.04147,229.62273 L 328.00508,216.08874 L 319.85634,203.65306"
       id="path1359" />
    <text
       xml:space="preserve"
       style="font-size:12px;font-style:normal;font-weight:normal;fill:#000000;fill-opacity:1;stroke:none;stroke-width:1px;stroke-linecap:butt;stroke-linejoin:miter;stroke-opacity:1;font-family:Bitstream Vera Sans"
       x="381.70132"
       y="267.18259"
       id="text2198"><tspan
         sodipodi:role="line"
         id="tspan2200"
         x="381.70132"
         y="267.18259"> </tspan></text>
  </g>
</svg>
