<?xml version="1.0" encoding="UTF-8" standalone="no"?>
<!-- Created with Inkscape (http://www.inkscape.org/) -->
<svg
   xmlns:dc="http://purl.org/dc/elements/1.1/"
   xmlns:cc="http://web.resource.org/cc/"
   xmlns:rdf="http://www.w3.org/1999/02/22-rdf-syntax-ns#"
   xmlns:svg="http://www.w3.org/2000/svg"
   xmlns="http://www.w3.org/2000/svg"
   xmlns:sodipodi="http://inkscape.sourceforge.net/DTD/sodipodi-0.dtd"
   xmlns:inkscape="http://www.inkscape.org/namespaces/inkscape"
   width="744.09448819"
   height="1052.3622047"
   id="svg4064"
   sodipodi:version="0.32"
   inkscape:version="0.43"
   sodipodi:docbase="/home/marcelix/work/hrlatex/visual_identity"
   sodipodi:docname="marcelix_sig.svg">
  <defs
     id="defs4066" />
  <sodipodi:namedview
     id="base"
     pagecolor="#ffffff"
     bordercolor="#666666"
     borderopacity="1.0"
     inkscape:pageopacity="0.0"
     inkscape:pageshadow="2"
     inkscape:zoom="1.1136527"
     inkscape:cx="214.86684"
     inkscape:cy="484.74763"
     inkscape:document-units="px"
     inkscape:current-layer="layer1"
     showgrid="false"
     showguides="false"
     inkscape:guide-bbox="true"
     inkscape:window-width="1280"
     inkscape:window-height="1024"
     inkscape:window-x="0"
     inkscape:window-y="0">
    <sodipodi:guide
       orientation="horizontal"
       position="697.59907"
       id="guide5273" />
    <sodipodi:guide
       orientation="horizontal"
       position="706.47437"
       id="guide5275" />
    <sodipodi:guide
       orientation="horizontal"
       position="681.96897"
       id="guide6366" />
  </sodipodi:namedview>
  <metadata
     id="metadata4069">
    <rdf:RDF>
      <cc:Work
         rdf:about="">
        <dc:format>image/svg+xml</dc:format>
        <dc:type
           rdf:resource="http://purl.org/dc/dcmitype/StillImage" />
      </cc:Work>
    </rdf:RDF>
  </metadata>
  <g
     inkscape:label="Layer 1"
     inkscape:groupmode="layer"
     id="layer1">
    <path
       style="fill:#000000;fill-opacity:1;fill-rule:nonzero;stroke:none;stroke-width:1px;stroke-linecap:butt;stroke-linejoin:miter;stroke-opacity:1"
       d="M 315.92584,371.61771 C 317.49481,364.96562 321.61265,359.37387 325.04262,353.59219 C 326.70067,351.02372 328.44342,348.5075 330.32856,346.09977 C 332.0228,345.76163 333.53981,347.80882 332.83012,349.3511 C 332.40401,352.60986 331.20822,355.79916 331.48416,359.12558 C 333.26527,359.64632 334.43259,357.76264 335.14075,356.43211 C 336.51241,354.02851 337.63515,351.49591 338.80207,348.98977 C 338.57602,347.13296 342.1557,347.63989 341.3686,349.37459 C 339.41722,355.53502 338.6859,361.99884 338.17383,368.41419 C 338.17787,369.59466 338.63712,371.24062 337.33936,371.9126 C 335.70064,371.95577 336.04417,369.72595 336.10821,368.60871 C 336.3121,364.61233 336.40509,360.58025 337.362,356.67237 C 337.77882,354.65939 338.49031,352.71591 338.80853,350.68633 C 338.64627,349.15545 341.29847,348.41128 340.79787,350.35783 C 340.4312,351.61236 339.38921,352.50351 338.84562,353.67689 C 337.17495,356.45546 335.28132,359.30441 332.44636,361.00391 C 330.81821,361.56082 329.17151,359.68679 329.73532,358.11443 C 329.99738,356.0721 330.46121,354.04995 330.57315,351.99353 C 330.97233,351.13419 331.25933,348.56949 329.65684,349.48472 C 328.56681,350.65946 328.13234,352.27141 327.11351,353.50595 C 323.43491,359.247 320.10568,365.21329 317.17937,371.37237 C 316.91201,371.73987 316.29018,372.01205 315.92584,371.61771 z "
       id="path4969" />
    <path
       style="fill:#000000;fill-opacity:1;fill-rule:nonzero;stroke:none;stroke-width:1px;stroke-linecap:butt;stroke-linejoin:miter;stroke-opacity:1"
       id="path4971"
       d="M 337,372.1824 C 337.49377,370.53383 338.29411,368.94247 339.13982,367.41833 C 341.20588,363.12036 343.71335,359.03843 346.60368,355.16718 C 349.60235,352.79377 348.79679,361.58452 348.80607,363.14395 C 348.78136,365.55907 348.65398,367.97359 348.54354,370.38708 L 347.09859,369.82578 C 346.95299,367.37158 347.01702,364.91332 347.05097,362.45681 C 347.06811,360.35053 347.05398,358.2303 347.28759,356.13227 C 347.33631,355.69472 346.92622,354.72161 347.39389,354.81639 C 347.67102,354.87256 348.42549,354.96015 348.18681,355.10115 C 347.94661,355.24305 347.91067,355.67149 347.71297,355.84111 C 345.38016,360.00456 343.13838,364.21408 340.55459,368.2546 C 339.64374,369.70045 338.617,371.0819 337.89469,372.61588 L 337,372.1824 z " />
    <path
       style="fill:#000000;fill-opacity:1;fill-rule:nonzero;stroke:#000000;stroke-width:0.5;stroke-linecap:butt;stroke-linejoin:miter;stroke-miterlimit:4;stroke-dasharray:none;stroke-opacity:1"
       d="M 374.47839,356.14516 C 367.94319,355.80197 361.71598,360.0863 361.52604,365.0659 C 361.48252,366.9534 363.55476,368.7202 366.02059,368.91935 C 368.25503,369.35452 370.59323,369.29116 372.85498,369.05699 C 373.67508,368.21418 375.70602,369.54674 374.53273,370.21267 C 373.18233,370.93723 371.47698,370.44798 369.95912,370.52386 C 367.44314,370.53787 364.72625,370.26258 362.75027,368.95507 C 360.06984,367.18933 359.44353,364.10931 360.65041,361.66758 C 361.93028,359.09377 364.63391,356.96384 367.90472,355.811 C 369.65652,355.2181 371.62749,354.88 373.54737,355.0762 C 374.10473,355.23109 374.62092,355.668 374.47839,356.14516 z "
       id="path4983" />
    <path
       style="fill:#000000;fill-opacity:1;fill-rule:nonzero;stroke:none;stroke-width:1px;stroke-linecap:butt;stroke-linejoin:miter;stroke-opacity:1"
       d="M 349.97872,355.08629 C 353.01906,354.65979 356.11411,355.6746 358.61047,357.38664 C 359.73829,358.50169 359.48493,360.59786 358.18727,361.47572 C 357.0003,362.70735 355.30926,363.39095 353.61255,363.47133 C 352.80993,363.73177 351.90605,363.98643 351.08972,363.63335 C 350.4331,362.94183 351.48159,361.6791 352.28202,362.19742 C 355.10783,363.92326 357.93823,365.64349 360.7027,367.46686 C 361.26261,368.2752 362.47901,368.3046 362.94799,369.19275 C 363.27404,370.15367 361.98696,370.72391 361.31742,370.10297 C 360.29263,369.5683 359.49563,368.68915 358.4556,368.17581 C 356.61354,367.05154 354.67196,366.06382 353.00278,364.6802 C 352.1781,364.3887 351.55925,363.51227 351.67489,362.62678 C 352.31924,361.68674 353.54523,361.52244 354.59362,361.43192 C 355.86015,361.1189 356.93587,360.037 357.13648,358.73266 C 356.77266,357.42242 355.35041,356.81838 354.11167,356.66405 C 352.75606,356.40596 351.1521,356.43407 350.15837,355.32093 L 350.06601,355.20744 L 349.97872,355.08629 L 349.97872,355.08629 z "
       id="path5152" />
    <path
       style="fill:#000000;fill-opacity:1;fill-rule:nonzero;stroke:none;stroke-width:1px;stroke-linecap:butt;stroke-linejoin:miter;stroke-opacity:1"
       id="path5281"
       d="M 337.07532,363.52363 C 338.00429,362.75632 333.13115,362.88434 336.45443,362.56836 C 337.37938,362.48042 338.29391,362.43381 339.24214,362.39937 C 343.079,362.28423 346.89933,362.4577 350.70361,362.62988 C 351.29836,362.65697 351.00798,362.64474 351.57467,362.66683 L 354.20261,363.65576 C 353.72239,363.67554 353.96895,363.66545 353.46291,363.68601 C 349.89122,363.78937 346.33076,363.78341 342.75513,363.69854 C 341.23729,363.67085 334.07802,363.75532 335.09928,362.78297 L 337.07532,363.52363 z " />
    <path
       style="fill:#000000;fill-opacity:1;fill-rule:nonzero;stroke:#000000;stroke-width:0.40000001;stroke-linecap:butt;stroke-linejoin:miter;stroke-miterlimit:4;stroke-dasharray:none;stroke-opacity:1"
       d="M 377.5321,363.60611 C 377.56319,362.97829 377.87484,362.08767 378.66056,362.20284 C 379.40634,362.26251 380.13967,362.79601 380.88916,362.49259 C 381.63725,362.4493 382.58218,362.28256 383.13231,362.92198 C 383.76411,363.74271 382.39397,364.00327 381.7928,363.93342 C 381.02648,363.89547 380.25776,363.64651 379.49089,363.81433 C 378.7569,363.6767 377.9488,363.80717 377.27229,363.44296 C 376.7911,362.87583 377.59106,363.34375 377.5321,363.60611 z M 377.5527,356.08673 C 377.47343,355.48137 377.76702,354.62803 378.52364,354.76655 C 379.23593,354.85713 379.94616,355.1404 380.65741,354.92916 C 381.92421,354.85729 383.33196,354.77919 384.39725,355.60012 C 384.41986,356.44729 383.45695,356.57317 382.83257,356.37065 C 382.09414,356.13358 381.36531,356.37452 380.61961,356.28881 C 379.40602,356.26127 378.15512,356.29112 376.99996,355.8598 C 376.76173,355.39562 377.63402,355.87128 377.5527,356.08673 z M 377.03473,370.05133 C 376.91763,369.44711 377.21951,368.60697 377.97185,368.74555 C 378.70955,368.83372 379.44567,369.08806 380.17909,368.88222 C 381.63172,368.79984 383.24391,368.73829 384.47428,369.65159 C 384.43933,370.28862 383.41595,370.52383 382.81647,370.34705 C 382.19846,370.18064 381.57435,370.24942 380.95188,370.27422 C 379.46201,370.24107 377.96522,370.20858 376.49189,369.96393 C 375.9659,369.26872 377.02715,369.66074 377.03473,370.05133 z M 377.49936,355.09579 C 378.18718,360.10402 377.28056,365.13672 377.36289,370.15812 C 376.62794,370.32982 376.16967,369.56792 375.97817,368.97574 C 375.45771,367.37268 375.53007,365.63686 375.86282,364.00381 C 376.19678,361.46033 375.72191,358.85651 376.28949,356.33842 C 376.46142,355.81855 376.7146,354.99305 377.39165,355.05391 L 377.49935,355.0958 L 377.49936,355.09579 z "
       id="path5285" />
    <path
       style="fill:#000000;fill-opacity:1;fill-rule:nonzero;stroke:none;stroke-width:1px;stroke-linecap:butt;stroke-linejoin:miter;stroke-opacity:1"
       id="path5447"
       d="M 351.62943,355.68555 C 351.81659,356.61855 351.7491,357.58227 351.67091,358.52869 C 351.57348,360.1201 351.52375,361.69925 351.56291,363.29191 C 351.57627,364.32577 351.67211,365.35401 351.74023,366.38387 C 351.88321,367.42656 352.0065,368.4673 352.11382,369.51807 C 352.1412,369.79882 352.15932,370.08059 352.17885,370.36218 L 350.49333,369.95272 C 350.45776,369.6726 350.42251,369.39243 350.38286,369.11304 C 350.25939,368.06663 350.15036,367.02284 350.07763,365.97065 C 349.95957,364.91921 349.86323,363.8651 349.75607,362.81211 C 349.64924,361.19372 349.73515,359.54992 349.87846,357.93863 C 349.94525,357.04396 350.01021,356.1391 350.16355,355.26196 L 351.62943,355.68555 z " />
    <path
       style="fill:#000000;fill-opacity:1;fill-rule:nonzero;stroke:none;stroke-width:1px;stroke-linecap:butt;stroke-linejoin:miter;stroke-opacity:1"
       d="M 387.37568,355.87537 C 387.70421,360.44708 387.12023,365.00493 386.80942,369.5474 C 384.60317,370.22233 385.63597,366.07613 385.57694,364.41554 C 385.69785,361.38539 385.43063,358.19308 386.17756,355.29872 C 386.6025,354.8959 387.01127,355.71564 387.37568,355.87537 z M 385.42165,368.88455 C 388.61687,368.14654 391.8749,368.47808 395.0868,368.81026 C 396.92477,370.49163 394.28464,370.33574 393.32318,370.20627 C 391.0372,370.3018 388.72044,370.6805 386.45555,370.07176 C 386.04579,369.78624 385.74373,369.31107 385.42165,368.88455 z "
       id="path6370" />
    <path
       style="fill:#000000;fill-opacity:1;fill-rule:nonzero;stroke:none;stroke-width:1px;stroke-linecap:butt;stroke-linejoin:miter;stroke-opacity:1"
       d="M 396.36668,357.65083 C 397.16217,358.10092 397.7922,359.11071 398.05288,360.32385 C 398.47025,362.20024 398.36102,364.20268 398.38459,366.14862 C 398.3958,367.17519 398.41907,368.21714 398.60882,369.21038 C 398.30065,369.65476 397.89559,370.1826 397.43412,370.00083 C 396.97204,369.73264 396.80206,368.95227 396.67172,368.30012 C 396.46091,367.09044 396.40384,365.83092 396.41495,364.58433 C 396.13458,363.20452 396.08849,361.73521 396.15703,360.30343 C 396.22213,359.44416 396.29696,358.49618 396.70362,357.83277 C 396.78522,357.63801 397.19263,357.46704 397.16303,357.61567 C 396.92706,357.84617 396.61556,357.81671 396.36668,357.65083 z "
       id="path6383" />
    <path
       style="fill:#000000;fill-opacity:1;fill-rule:nonzero;stroke:none;stroke-width:1px;stroke-linecap:butt;stroke-linejoin:miter;stroke-opacity:1"
       d="M 401.8933,355.82795 C 403.83465,359.70903 406.94738,362.86975 408.82029,366.78961 C 410.21492,367.86675 410.88491,372.35537 408.32446,369.94319 C 407.43513,368.25226 406.65256,366.50433 405.49866,364.95909 C 403.68424,362.15239 401.52097,359.49723 400.29619,356.36427 C 400.29491,355.56161 401.41755,355.94527 401.8933,355.82795 z M 400.20736,369.52207 C 402.29133,364.83183 405.87648,361.02033 408.19389,356.4754 C 410.1204,354.68852 410.10025,358.57639 408.812,359.43468 C 406.54921,362.88502 404.62883,366.60559 401.84373,369.69616 C 401.29832,369.92802 400.73477,369.65431 400.20736,369.52207 z "
       id="path6385" />
    <path
       style="fill:#000000;fill-opacity:1;fill-rule:nonzero;stroke:#000000;stroke-width:0.5;stroke-linecap:butt;stroke-linejoin:miter;stroke-miterlimit:4;stroke-dasharray:none;stroke-opacity:1"
       id="path6394"
       d="M 397.16826,354.95871 C 397.0712,355.1294 396.92004,355.26557 396.85697,355.45427 C 396.66404,355.55766 397.12843,355.80197 397.09595,355.78865 C 396.57674,355.57566 396.84251,355.71713 397.0977,355.6186 C 397.72629,355.31891 397.94536,354.62053 397.68029,354.01477 C 397.80463,354.00129 397.16845,353.40555 397.20358,353.41959 C 397.73244,353.63085 397.32589,353.52098 397.02963,353.74443 C 396.89341,353.8532 396.76932,353.97482 396.647,354.09758 L 396.22433,353.88882 C 396.33403,353.74641 396.44824,353.6071 396.58611,353.48821 C 397.24105,352.94104 397.98729,353.38591 398.26607,354.0841 C 398.50429,354.79885 398.25686,355.59254 397.51625,355.92456 C 397.02689,356.10276 396.28616,355.91102 396.43064,355.31165 C 396.51406,355.10266 396.63291,354.9003 396.83511,354.77993 L 397.16826,354.95871 z " />
  </g>
</svg>
